<svg xmlns="http://www.w3.org/2000/svg" viewBox="0 0 1271.4 271.44"><defs><style>.cls-1{fill:#630832}.cls-2{fill:#cc203f}</style></defs><g id="Layer_2" data-name="Layer 2"><g id="Layer_1-2" data-name="Layer 1"><path d="M760.67 82.22c3.66 30.79 3.66 71.84 0 102.63-5.13 44-36.65 81-87.24 81s-82.1-37-87.23-81c-3.67-30.79-3.67-71.84 0-102.63 5.13-44 36.65-81 87.23-81s82.11 37.01 87.24 81zM709 184.85c3.66-30.79 3.66-71.84 0-102.63-1.84-16.13-13.2-29.32-35.56-29.32s-33.72 13.19-35.55 29.32c-3.67 30.79-3.67 71.84 0 102.63 1.83 16.12 13.2 29.32 35.55 29.32S707.15 201 709 184.85zM841 206.84a3.45 3.45 0 003.66 3.66h77a7.36 7.36 0 017.33 7.34v36.65a7.35 7.35 0 01-7.33 7.33H797a7.35 7.35 0 01-7.33-7.33V12.58A7.36 7.36 0 01797 5.24h36.66a7.36 7.36 0 017.34 7.34zM1037.54 256.32c-1.1 3.67-3.66 5.5-7 5.5h-55.31c-3.3 0-5.86-1.83-7-5.5L904.86 14a6.85 6.85 0 017-8.8h40.32c3.3 0 6.23 1.47 7 5.5l40.31 171.91c.37 1.46 1.1 2.56 2.57 2.56h2.2c1.47 0 2.2-1.1 2.57-2.56l40-171.91c.73-4 3.66-5.5 7-5.5H1094a6.85 6.85 0 017 8.8zM1173.54 206.84a3.45 3.45 0 003.66 3.66h86.87a7.36 7.36 0 017.33 7.34v36.65a7.35 7.35 0 01-7.33 7.33h-134.52a7.35 7.35 0 01-7.33-7.33V12.58a7.36 7.36 0 017.33-7.34h133.06a7.36 7.36 0 017.33 7.34v36.65a7.35 7.35 0 01-7.33 7.33h-85.41a3.46 3.46 0 00-3.66 3.67v44a3.46 3.46 0 003.66 3.67h82.47a7.35 7.35 0 017.33 7.33v36.65a7.35 7.35 0 01-7.33 7.33h-82.47a3.46 3.46 0 00-3.66 3.66zM51.31 254.49a7.35 7.35 0 01-7.31 7.33H7.33A7.35 7.35 0 010 254.49V12.58a7.36 7.36 0 017.33-7.34H44a7.35 7.35 0 017.33 7.34z" class="cls-1"/><path d="M422.05 271.44c46.65 0 78.5-34.64 91.69-66.5C430.42 230.36 368 137.06 406.29 5.47H281.45c-19.94 149.93 68.85 265.97 140.6 265.97z" class="cls-2"/><path d="M489.4 176c50.19 0 76.6-65 76.6-108.76C566 28.31 546 0 511.6 0c-50.83 0-75 63.7-75 103.28.04 41.5 22.88 72.72 52.8 72.72z" class="cls-2"/><path d="M205.82 261.82c-6.23 0-8.8-3.3-9.9-6.23l-49.85-128.65c-.73-2.2-3.29-1.47-3.29.73v126.82a7.36 7.36 0 01-7.34 7.33H98.79a7.35 7.35 0 01-7.33-7.33V12.57a7.35 7.35 0 017.33-7.33h43.62a9 9 0 019.16 6.6l50.22 139.28c.73 2.2 3.3 1.47 3.3-.73V12.57a7.35 7.35 0 017.33-7.33h36.65a7.35 7.35 0 017.33 7.33v241.92a7.35 7.35 0 01-7.33 7.33z" class="cls-1"/></g></g></svg>