<svg xmlns="http://www.w3.org/2000/svg" style="display: none;">
  <symbol id="plus" viewBox="0 0 32 32" width="100%" height="100%">
    <title>Plus</title>
    <path d="M26,14h-8V6c0-1.1-0.9-2-2-2l0,0c-1.1,0-2,0.9-2,2v8H6c-1.1,0-2,0.9-2,2l0,0c0,1.1,0.9,2,2,2h8v8c0,1.1,0.9,2,2,2l0,0c1.1,0,2-0.9,2-2v-8h8c1.1,0,2-0.9,2-2l0,0C28,14.9,27.1,14,26,14z"></path>
  </symbol>
  <symbol id="calendar" viewBox="0 0 32 32" width="100%" height="100%">
    <path d="M24,2V1c0-0.6-0.4-1-1-1s-1,0.4-1,1v1H10V1c0-0.6-0.4-1-1-1S8,0.4,8,1v1C4.7,2,2,4.7,2,8v16c0,3.3,2.7,6,6,6h16c3.3,0,6-2.7,6-6V8C30,4.7,27.3,2,24,2z M8,4v1c0,0.6,0.4,1,1,1s1-0.4,1-1V4h12v1c0,0.6,0.4,1,1,1s1-0.4,1-1V4c2.2,0,4,1.8,4,4v2H4V8C4,5.8,5.8,4,8,4z M24,28H8c-2.2,0-4-1.8-4-4V12h24v12C28,26.2,26.2,28,24,28z"></path>
  </symbol>
</svg>
